<svg width="227" height="61" viewBox="0 0 227 61" fill="none" xmlns="http://www.w3.org/2000/svg">
<path d="M120.56 4.22614C120.589 4.17592 120.624 4.17592 120.665 4.22614L120.603 4.27637L120.56 4.22614Z" fill="#6B7076"/>
<path d="M68.4088 21.6251C69.0648 19.646 69.6868 17.7756 70.2951 15.921C70.3701 15.6946 70.5221 15.6425 70.7196 15.6063C74.0043 14.9949 77.3026 14.4741 80.6577 14.6394C83.0253 14.7504 85.3021 15.2327 87.3406 16.5007C90.1054 18.2171 91.3698 20.8031 91.5492 23.9732C91.6536 25.7961 91.3562 27.5963 91.0952 29.3806C90.5526 33.0172 89.9942 36.6493 89.4698 40.2859C89.4555 40.4384 89.4003 40.5843 89.3101 40.7082C89.2198 40.8321 89.0978 40.9295 88.9568 40.9902C86.8185 42.1608 84.4985 42.8017 82.115 43.1911C79.1653 43.701 76.1567 43.7773 73.1849 43.4176C70.7083 43.1074 68.3997 42.3397 66.6019 40.5237C65.8216 39.7268 65.216 38.7768 64.8233 37.734C64.4306 36.6913 64.2595 35.5785 64.3207 34.4662C64.382 33.354 64.6743 32.2666 65.1791 31.273C65.684 30.2794 66.3903 29.4014 67.2533 28.6945C69.0966 27.1819 71.2758 26.4301 73.5708 25.9433C77.0461 25.2096 80.5533 25.3092 84.0627 25.5764C84.5008 25.6081 84.5961 25.4745 84.6166 25.085C84.7732 22.3542 83.1297 20.3932 80.2446 19.8656C78.2424 19.4988 76.2766 19.8158 74.3108 20.1373C72.305 20.4666 70.3306 20.9642 68.4088 21.6251ZM80.6849 29.8629C79.4356 29.8548 78.1877 29.9464 76.9531 30.1369C75.6183 30.3633 74.3221 30.7143 73.2461 31.5974C72.0294 32.596 71.7048 33.9366 71.9454 35.4129C72.1724 36.7603 73.1168 37.4985 74.3403 37.9332C74.9011 38.13 75.4846 38.2555 76.0768 38.3068C78.2651 38.5174 80.3898 38.137 82.5009 37.6162C82.6441 37.5974 82.7754 37.5268 82.87 37.4179C82.9645 37.309 83.0158 37.1693 83.014 37.0252C83.3022 34.8853 83.5883 32.7432 83.9061 30.6079C83.9605 30.2388 83.838 30.1686 83.5292 30.1097C82.5889 29.9549 81.638 29.8723 80.6849 29.8629Z" fill="#6B7076"/>
<path d="M169.751 36.5384C169.387 37.6389 169.07 38.6239 168.734 39.6089C168.466 40.4173 168.18 41.2189 167.926 42.0341C167.901 42.1588 167.84 42.2736 167.751 42.3639C167.661 42.4541 167.546 42.5159 167.422 42.5413C163.948 43.4652 160.43 43.9656 156.843 43.515C152.757 43.001 149.38 41.2506 147.309 37.5121C146.036 35.1979 145.632 32.6776 145.804 30.0803C146.134 25.1394 148.197 21.0432 152.033 17.8707C154.365 15.9415 157.084 14.9497 160.076 14.6553C162.139 14.4538 164.191 14.4923 166.205 15.0516C170.304 16.1838 173.038 19.3652 173.562 23.577C173.864 25.9976 173.562 28.3753 173.169 30.7551C173.122 31.0518 172.972 31.0608 172.745 31.0608C171.644 31.0608 170.541 31.0608 169.44 31.0608C164.143 31.0608 158.846 31.0608 153.55 31.0608C153.123 31.0608 152.998 31.165 152.991 31.602C152.932 35.1616 154.903 37.5121 158.41 38.1121C161.002 38.565 163.524 38.1733 166.041 37.6253C167.3 37.3445 168.539 36.9814 169.751 36.5384ZM160.489 26.4392H165.574C167.126 26.4392 167.126 26.4392 167.179 24.8904C167.285 21.7542 165.363 19.7094 162.237 19.5351C158.498 19.3245 154.973 22.0259 154.065 26.0339C153.99 26.3667 154.065 26.4483 154.405 26.446C156.428 26.4301 158.446 26.4392 160.489 26.4392Z" fill="#6B7076"/>
<path d="M182.803 43.6057C179.47 43.5835 176.161 43.0332 173.001 41.9753C172.686 41.8666 172.602 41.776 172.715 41.4341C173.234 39.8656 173.731 38.2896 174.207 36.706C174.325 36.3166 174.463 36.3483 174.776 36.4977C177.811 37.9787 181.239 38.4607 184.567 37.8745C185.347 37.7559 186.088 37.4531 186.728 36.9913C187.024 36.7867 187.27 36.5185 187.448 36.2065C187.626 35.8945 187.732 35.5466 187.758 35.1883C187.784 34.8301 187.729 34.4707 187.597 34.1365C187.465 33.8023 187.259 33.5019 186.996 33.2574C186.419 32.7246 185.771 32.2735 185.071 31.9168C183.334 30.9477 181.568 30.0397 179.918 28.9165C175.485 25.889 176.025 19.5872 180.39 16.8224C182.324 15.5973 184.442 14.9837 186.692 14.7504C190.442 14.3632 194.067 15.0041 197.64 16.0774C197.967 16.1747 198.051 16.2631 197.926 16.6095C197.388 18.0972 196.868 19.594 196.38 21.0998C196.25 21.4961 196.096 21.4666 195.79 21.3262C193.555 20.2743 191.108 19.7476 188.637 19.7865C187.438 19.8159 186.269 20.0129 185.255 20.7194C184.823 20.9938 184.494 21.4018 184.318 21.8808C184.141 22.3599 184.128 22.8834 184.279 23.371C184.474 23.9178 184.843 24.3861 185.33 24.7047C186.381 25.4927 187.584 26.0249 188.735 26.6544C190.143 27.3878 191.487 28.2376 192.752 29.195C196.493 32.1569 196.114 37.7997 192.525 40.6665C190.21 42.512 187.5 43.2501 184.617 43.5128C183.893 43.5762 183.173 43.5875 182.803 43.6057Z" fill="#6B7076"/>
<path d="M207.29 43.6057C204.001 43.574 200.737 43.0292 197.617 41.9912C197.256 41.8712 197.163 41.7647 197.297 41.3843C197.81 39.8491 198.296 38.3047 198.768 36.7559C198.881 36.38 198.995 36.3257 199.363 36.5023C202.385 37.9695 205.793 38.4527 209.106 37.8836C209.815 37.7724 210.496 37.5198 211.105 37.1408C212.61 36.183 212.794 34.4236 211.523 33.1917C210.99 32.7138 210.397 32.3066 209.759 31.9803C207.943 30.9522 206.057 30.0329 204.348 28.8101C200.405 25.9683 200.895 20.8259 203.306 18.2445C204.931 16.5077 206.983 15.5747 209.26 15.0743C212.281 14.395 215.3 14.558 218.317 15.1151C219.588 15.3415 220.832 15.6857 222.076 16.0208C222.489 16.1363 222.639 16.2586 222.465 16.7296C221.94 18.1494 221.463 19.585 221 21.0319C220.871 21.4282 220.742 21.4848 220.351 21.315C218.146 20.2822 215.737 19.7567 213.301 19.7775C212.166 19.7978 211.069 19.9654 210.079 20.5587C209.142 21.118 208.667 21.9309 208.808 23.0495C208.897 23.7605 209.326 24.2564 209.866 24.664C211.001 25.5222 212.306 26.0883 213.541 26.7676C214.949 27.5443 216.338 28.3527 217.566 29.3966C221.007 32.3403 220.619 37.7975 217.166 40.6054C215.312 42.1157 213.16 42.8992 210.838 43.3045C209.664 43.4947 208.478 43.5953 207.29 43.6057Z" fill="#6B7076"/>
<path d="M117.359 36.9395C117.243 37.6188 116.95 38.2279 116.734 38.8688C116.324 40.0893 115.885 41.2985 115.479 42.5212C115.449 42.6435 115.381 42.7532 115.285 42.8346C115.189 42.9159 115.069 42.9648 114.943 42.9741C112.219 43.427 109.466 43.7146 106.699 43.5062C102.57 43.196 99.0284 41.6947 96.595 38.1849C94.8789 35.7122 94.2728 32.9021 94.4249 29.9425C94.6791 25.0061 96.7766 20.9664 100.642 17.8733C102.858 16.1025 105.464 15.233 108.24 14.8707C111.677 14.3848 115.176 14.5935 118.53 15.4843C119.17 15.6587 119.788 15.9033 120.416 16.107C120.643 16.1795 120.702 16.2769 120.618 16.5237C120.083 18.0861 119.551 19.6531 119.05 21.2268C118.939 21.5733 118.782 21.5031 118.557 21.4148C116.954 20.7592 115.257 20.3625 113.529 20.2396C109.79 20.029 106.54 21.0548 104.206 24.1592C102.02 27.069 101.682 31.9012 104.022 34.8223C105.477 36.6338 107.398 37.5939 109.677 37.8588C112.135 38.1441 114.512 37.6709 116.859 36.9984C117.009 36.9553 117.161 36.9259 117.313 36.8897L117.359 36.9395Z" fill="#6B7076"/>
<path d="M143.237 36.9074C142.715 38.4064 142.116 39.8896 141.687 41.4203C141.376 42.5367 140.851 43.0665 139.63 43.1888C136.225 43.5285 132.82 43.9089 129.415 43.0099C124.06 41.5902 120.562 37.3286 120.272 31.7899C119.954 25.7711 122.265 20.9615 127.125 17.4041C129.168 15.9119 131.551 15.2054 134.039 14.8816C137.475 14.3973 140.973 14.6052 144.327 15.493C144.949 15.6628 145.546 15.9164 146.165 16.0953C146.49 16.1904 146.499 16.3376 146.392 16.6207C145.873 18.1355 145.357 19.6504 144.874 21.1766C144.758 21.5412 144.62 21.5276 144.322 21.4144C141.943 20.5086 139.51 20.0173 136.942 20.2822C132.582 20.7487 129.263 23.6244 128.425 27.8566C127.822 30.9113 128.375 33.7055 130.816 35.868C132.761 37.589 135.129 38.069 137.651 37.9218C139.43 37.805 141.188 37.4703 142.885 36.9255C142.987 36.9074 143.078 36.8236 143.237 36.9074Z" fill="#6B7076"/>
<path d="M56.7591 30.6763L28.4817 2.46875V6.79828L52.4189 30.6763L52.428 30.6854L31.6938 51.3684L31.6688 51.3434L10.9482 30.6763L10.9301 30.6582L21.102 20.5115H16.6868L6.50586 30.6673L6.51494 30.6763L31.6597 55.759L31.6688 55.75L56.7818 30.699L56.7591 30.6763Z" fill="#6B7076"/>
<path d="M28.4723 9.77734V14.1069L45.091 30.6845L31.7026 44.0399L18.3027 30.6754L18.2846 30.6573L28.4565 20.5106H24.0413L13.8604 30.6664L13.8694 30.6754L29.4848 46.2522L31.6685 48.4305L33.8886 46.2182L49.4449 30.6981L28.4723 9.77734Z" fill="#6B7076"/>
<path d="M42.1156 30.6762L33.8233 22.3953L31.6169 20.1943L29.4468 22.3591L21.1113 30.6672L29.4513 38.9865L31.635 41.1649L33.8506 38.9526L42.1383 30.6989L42.1156 30.6762ZM31.6736 36.7901L25.5446 30.6762L25.5265 30.6581L31.6396 24.5601L37.7686 30.674L31.6736 36.7901Z" fill="#6B7076"/>
</svg>
