<svg width="224" height="31" viewBox="0 0 224 31" fill="none" xmlns="http://www.w3.org/2000/svg">
<path d="M192.926 29.9839C185.069 30.3162 180.287 25.4645 180.012 19.4593C179.737 13.485 184.057 8.54548 190.394 8.05652C193.879 7.78593 197.045 8.44105 199.562 11.0212C200.113 11.5861 200.137 11.9564 199.508 12.424C199.12 12.7112 198.789 13.0672 198.433 13.39C197.836 13.9288 197.322 14.7192 196.62 14.9376C195.893 15.1607 195.557 14.095 194.903 13.7484C192.916 12.6922 190.895 12.6305 188.943 13.6511C186.737 14.8047 185.934 16.8128 186.005 19.1246C186.138 23.4873 189.841 26.1054 193.818 24.7169C194.682 24.4154 195.439 23.9549 195.989 23.2429C196.313 22.8227 196.529 22.8014 196.925 23.1859C197.789 24.0238 198.686 24.8332 199.616 25.6022C200.167 26.0579 200.083 26.3879 199.631 26.846C197.575 28.93 195.063 29.972 192.926 29.9839Z" fill="#6B7076"/>
<path d="M170.912 11.0185C172.764 9.44016 174.556 8.32839 176.829 8.03362C177.607 7.9315 178.033 8.02202 177.899 8.87383C177.844 9.2127 177.891 9.56782 177.889 9.91365C177.886 10.8792 178.19 11.9701 177.804 12.7755C177.32 13.7851 175.959 12.8753 175.05 13.2583C174.489 13.495 173.868 13.6041 173.297 13.8223C171.687 14.4327 170.745 15.2915 170.852 17.1877C171.057 20.8039 170.892 24.4386 170.927 28.0664C170.935 28.7511 170.778 29.0319 169.977 28.9971C168.612 28.9368 167.241 28.96 165.875 28.9902C165.262 29.0041 164.998 28.8718 165 28.2289C165.022 21.9018 165.022 15.5723 165 9.2452C164.998 8.59995 165.267 8.4723 165.877 8.48622C167.203 8.51639 168.534 8.55121 169.855 8.47694C170.768 8.42587 171.027 8.74385 170.922 9.52836C170.865 9.93686 170.912 10.357 170.912 11.0185Z" fill="#6B7076"/>
<path d="M79.6553 26.1746C80.9336 22.0568 82.212 17.9366 83.4927 13.8188C83.8894 12.5422 84.2886 11.2679 84.6927 9.99366C84.9278 9.2527 86.091 8.75007 86.7767 9.12999C87.2272 9.38012 86.8722 9.74825 86.7791 10.0338C85.6526 13.4696 84.5114 16.9007 83.3703 20.3318C82.5401 22.8308 81.6536 25.3156 80.8969 27.8335C80.6373 28.6995 80.2749 28.978 79.3296 28.9992C78.3672 29.0205 78.1003 28.6099 77.853 27.8594C76.2196 22.8969 74.5494 17.9461 72.8891 12.9906C72.8279 12.8065 72.7348 12.6342 72.5708 12.2661C71.5153 15.3574 70.5235 18.2788 69.5244 21.1955C68.7211 23.5387 67.8763 25.8702 67.1269 28.2276C66.9212 28.8812 66.5759 28.9969 65.9833 28.9591C65.4323 28.9261 64.8887 29.0771 64.6291 28.322C62.4422 21.9695 60.2162 15.6311 58 9.28101C60.0913 8.8185 60.1501 8.86098 60.755 10.6851C62.3198 15.4235 63.8993 20.1572 65.4764 24.8909C65.5988 25.259 65.7531 25.6177 65.9686 26.1769C67.6926 21.1436 69.353 16.299 71.0108 11.452C71.1504 11.0438 71.3292 10.6426 71.4247 10.2249C71.5986 9.47451 71.8655 9.04504 72.8524 9.0592C73.8123 9.071 73.9642 9.55947 74.1772 10.2155C75.9135 15.5509 77.6644 20.884 79.4105 26.217C79.4913 26.2052 79.5745 26.1911 79.6553 26.1746Z" fill="#6B7076"/>
<path d="M125.422 5.97372C122.321 5.97372 119.217 5.93284 116.116 5.99927C115.193 6.01715 114.954 5.71055 115.007 4.7754C115.081 3.50554 115.052 2.22802 115.014 0.955606C114.993 0.263188 115.172 -0.00253681 115.877 1.82332e-05C122.28 0.0281237 128.681 0.0230138 135.084 0.00512844C135.711 0.0025734 136.029 0.112441 135.998 0.89173C135.943 2.2919 135.94 3.69717 135.998 5.09478C136.031 5.88429 135.701 5.98905 135.082 5.98394C131.864 5.96094 128.643 5.97372 125.422 5.97372Z" fill="#6B7076"/>
<path d="M10.2449 9.00546C13.0183 8.94626 15.3901 9.86507 17.2957 11.8803C17.5276 12.1242 18.0799 12.4534 17.4678 12.7825C17.0136 13.0288 16.7147 14.0329 15.9424 13.2609C13.2957 10.6134 10.166 10.1374 6.86409 11.6459C3.3566 13.249 2.00812 16.3228 2.18983 19.9815C2.35958 23.4128 3.95433 26.1574 7.28011 27.4788C10.5557 28.7788 13.628 28.1442 16.2006 25.7146C17.0781 24.8857 17.255 25.8827 17.683 26.1242C18.3549 26.5031 17.793 26.8276 17.5109 27.0952C14.527 29.9155 10.9526 30.5928 7.11513 29.5129C3.30161 28.4378 1.03023 25.7288 0.257963 21.9091C-0.904026 16.1689 1.94595 11.042 7.06731 9.43171C8.10497 9.10729 9.16176 8.96994 10.2449 9.00546Z" fill="#6B7076"/>
<path d="M123.441 17.9823C120.95 17.9823 118.458 17.9567 115.969 17.9973C115.203 18.0101 114.966 17.8394 115.004 17.1761C115.071 16.0073 115.049 14.8343 115.011 13.6633C114.994 13.1579 115.171 12.9979 115.774 13C120.922 13.0192 126.07 13.0171 131.218 13C131.812 12.9979 132.009 13.1408 131.991 13.6569C131.952 14.8279 131.934 16.0009 131.996 17.1697C132.031 17.8224 131.817 18.0122 131.039 17.9994C128.507 17.9546 125.973 17.9823 123.441 17.9823Z" fill="#6B7076"/>
<path d="M24.9276 13.0163C26.4683 10.9639 28.3502 9.57602 30.8763 9.12044C31.5373 9.00068 32.2295 8.9772 32.9025 9.01947C33.3375 9.0453 34.1306 8.92553 33.9816 9.65587C33.8566 10.2664 34.0249 11.241 32.6549 11.0672C29.0328 10.6093 25.6271 13.5752 25.2161 17.6097C24.8627 21.0665 25.1343 24.5514 25.1055 28.0246C25.1007 28.6845 25.0022 28.9827 24.2066 28.9992C23.2933 29.0156 23.0169 28.7972 23.0217 27.8579C23.0601 21.886 23.0313 15.9142 23 9.94236C22.9976 9.40225 23.1058 9.1181 23.7067 9.21907C24.185 9.29892 24.9252 8.91379 24.9276 9.86017C24.93 10.9099 24.9276 11.9619 24.9276 13.0163Z" fill="#6B7076"/>
<path d="M119.059 24.017C120.14 24.017 121.224 24.0479 122.305 24.0041C122.848 23.9835 123.01 24.1897 122.994 24.8031C122.96 26.2595 122.947 27.7184 122.998 29.1748C123.023 29.9068 122.761 30.0047 122.218 29.997C120.091 29.9661 117.962 29.9609 115.836 29.9996C115.216 30.0099 114.979 29.832 115.006 29.0794C115.053 27.7107 115.066 26.3342 115.003 24.9655C114.963 24.102 115.286 23.9731 115.923 24.0041C116.968 24.053 118.014 24.017 119.059 24.017Z" fill="#6B7076"/>
<path fill-rule="evenodd" clip-rule="evenodd" d="M220.41 24.433C220.222 24.141 220.032 23.8464 219.833 23.554C218.549 24.6868 217.074 25.2288 215.51 25.5437C212.355 26.1736 209.323 24.7234 208.283 22.1453C207.946 21.3104 207.89 20.8929 209.072 20.9149C211.855 20.9676 214.639 20.9583 217.424 20.949C218.504 20.9453 219.583 20.9417 220.663 20.9417C224.228 20.9417 224.228 20.9417 223.82 17.3553C223.058 10.6489 217.219 6.49368 210.637 7.97071C204.421 9.36473 200.798 15.3144 202.233 21.7742C203.298 26.5666 207.199 29.9162 212.097 30.2873C215.385 30.5363 218.471 29.9772 221.31 28.2146C222.192 27.6677 222.492 27.1941 221.718 26.2834C221.234 25.7133 220.826 25.0794 220.41 24.433ZM211.924 16.8713C212.345 16.8726 212.765 16.8739 213.185 16.8739C213.603 16.8739 214.021 16.8708 214.439 16.8676C215.442 16.86 216.445 16.8524 217.448 16.8886C218.259 16.9179 218.52 16.747 218.251 15.8852C217.556 13.6538 215.654 12.355 213.007 12.4013C210.52 12.4453 208.605 13.9077 208.049 16.1269C207.885 16.7714 208.098 16.8935 208.681 16.8837C209.762 16.8644 210.843 16.8678 211.924 16.8713Z" fill="#6B7076"/>
<path fill-rule="evenodd" clip-rule="evenodd" d="M149.377 7.6869C142.739 7.73329 138.12 12.367 138.12 18.9734C138.12 25.7067 142.839 30.4234 149.531 30.3746C156.181 30.3257 160.859 25.6822 160.861 19.1272C160.864 12.2962 156.189 7.63808 149.377 7.6869ZM147.397 13.1777C145.317 13.9907 144.016 16.244 144.016 18.368C143.987 20.8875 144.543 22.5599 145.871 23.8855C147.969 25.9802 151.836 25.636 153.647 23.2459C155.544 20.7459 155.405 16.7592 153.342 14.4374C151.968 12.892 149.477 12.3623 147.397 13.1777Z" fill="#6B7076"/>
<path fill-rule="evenodd" clip-rule="evenodd" d="M106.796 7.98396C106.794 8.85886 106.792 9.74638 106.792 10.6513C105.491 9.90666 104.37 9.45013 103.211 9.10345C98.2719 7.6313 92.8765 10.1215 90.8745 14.826C89.9273 17.0526 89.8418 19.3914 90.0738 21.7644C90.7964 29.2008 98.2524 32.8238 104.446 28.7467C105.281 28.1974 105.948 27.4552 106.797 26.4958C106.797 26.8369 106.8 27.1451 106.802 27.4311C106.806 28.0047 106.81 28.4891 106.792 28.9713C106.762 29.8195 107.233 29.8112 107.725 29.8025C107.862 29.8001 108.001 29.7977 108.13 29.8136C108.865 29.9046 108.863 29.5004 108.86 28.9714C108.86 28.9609 108.86 28.9503 108.86 28.9396C108.838 23.3318 108.833 17.7216 108.828 12.1139V12.1137C108.828 11.5592 108.827 11.0047 108.826 10.4502C108.821 7.30599 108.816 4.16181 108.841 1.01763C108.848 0.316956 108.709 0.0606117 107.92 0.00690158C106.822 -0.0663396 106.768 0.44879 106.778 1.2935C106.804 3.49404 106.8 5.69584 106.796 7.98396ZM106.792 20.7094V17.665C106.792 17.2829 106.792 16.9007 106.792 16.5183C106.791 15.5616 106.79 14.6041 106.795 13.6465C106.797 13.229 106.746 12.8726 106.377 12.5747C102.815 9.711 95.6768 9.711 93.1524 15.021C92.0636 17.3134 91.9415 19.7279 92.3785 22.1571C93.1549 26.4783 96.0601 28.7683 100.108 28.3777C104.209 27.9822 106.79 25.0233 106.792 20.7094Z" fill="#6B7076"/>
<path fill-rule="evenodd" clip-rule="evenodd" d="M56.2659 19.5816C56.2855 13.5856 51.6249 8.78097 45.7534 8.74435C39.8648 8.70773 35.1408 13.4562 35.1115 19.4424C35.0822 25.5092 39.755 30.348 45.668 30.3725C51.4906 30.3969 56.2489 25.5532 56.2659 19.5816ZM45.9414 10.617C41.3516 10.3875 37.5015 14.2083 37.2354 19.2546C36.984 23.9835 40.8633 28.2999 45.5434 28.4976C50.0136 28.688 53.8831 24.7916 54.1517 19.8259C54.4056 15.1506 50.5678 10.8489 45.9414 10.617Z" fill="#6B7076"/>
</svg>
