<svg width="180" height="48" viewBox="0 0 180 48" fill="none" xmlns="http://www.w3.org/2000/svg">
<path d="M28.5537 32.364C29.3352 35.4938 30.5075 38.402 33.0212 40.6076C34.3964 41.8174 36.0195 42.5726 37.9508 43.3241C33.318 46.6832 28.3433 48.2312 22.914 47.9719C12.183 47.4609 3.67268 40.6188 0.865958 30.4778C-1.87313 20.5885 2.02322 10.053 10.6087 4.15771C10.8079 4.02245 11.0521 3.95106 11.2738 3.84961C11.9275 3.87591 12.9044 3.73313 12.0666 4.83403C11.7697 5.22479 12.029 5.15716 12.1417 5.38636C13.2576 7.6633 13.5695 10.0755 13.2013 12.5779C10.883 14.4866 10.65 15.9257 12.3446 18.3153C13.4718 19.9009 14.0091 21.6443 14.0016 23.5793C13.9903 26.078 13.9941 28.5766 14.0016 31.0715C14.0091 33.4235 14.7793 34.7386 16.4251 35.2458C18.1083 35.7606 19.4234 35.1106 20.7234 33.1117C21.0541 30.2599 20.7798 27.4005 20.87 24.5487C20.9188 23.8499 21.4073 23.414 21.9821 23.6507C24.3493 24.6164 26.9343 25.2852 28.3621 27.7312C28.4861 29.2717 28.1179 30.8347 28.5537 32.364Z" fill="#FEFEFE"/>
<path d="M46.9982 29.8512C46.9419 31.264 46.3144 32.4814 45.6193 33.6537C44.4357 35.6563 42.7825 36.9864 40.3139 36.7309C37.9581 36.4867 36.3312 34.7809 35.6586 32.0681C35.3468 30.9183 35.5872 29.746 35.5121 28.585C35.7864 27.5781 36.6844 27.781 37.3644 27.7246C40.8475 27.4315 43.951 25.9136 47.1748 24.7676C47.3927 24.8239 47.5055 24.963 47.513 25.1884C47.4566 26.0977 47.667 27.022 47.3777 27.92L47.3928 27.8824C46.8292 28.4535 47.3777 29.2426 46.9982 29.8512Z" fill="#FEFEFE"/>
<path d="M42.4746 9.42591C43.0269 9.81667 43.5116 10.2525 43.613 10.9702C42.8014 11.7254 41.9185 12.3942 41.0919 13.1381C39.8069 14.2992 38.2814 14.8966 36.5192 14.8665C35.2229 14.844 33.9191 14.7726 32.6529 15.1746C31.428 13.9197 29.9777 12.9841 28.4409 12.1612C28.4973 11.4098 28.0915 10.8612 27.6444 10.3277C25.8935 8.22732 25.653 5.81887 26.2917 3.2714C26.4796 2.51242 26.6562 1.5806 27.8548 1.90373C28.4372 2.64017 28.1103 3.42921 28.0351 4.22576C27.7458 7.26168 29.0271 9.92563 31.2101 11.6239C32.2809 12.4581 34.37 12.9428 36.181 12.6948C37.977 12.4506 39.5175 11.7404 40.7988 10.478C41.2872 9.99702 41.693 9.42215 42.4746 9.42591Z" fill="#FEFEFE"/>
<path d="M27.8061 1.98246C26.6489 2.22669 26.7991 3.19232 26.6451 4.02645C26.2055 6.37853 26.4535 8.52021 28.2833 10.2824C28.8469 10.8272 29.3504 11.4547 28.4449 12.1611C26.5061 11.6238 24.5335 11.5712 22.5421 11.7064C22.4933 11.1842 22.8915 11.094 23.2522 10.9625C23.9887 10.7972 24.7439 10.9437 25.4916 10.8498C25.8485 10.4815 25.5254 10.1359 25.4089 9.83528C24.5034 7.52076 24.1427 5.17619 24.6725 2.70011C24.7852 2.17033 25.3826 1.32493 24.2705 1.0018C23.9022 0.975495 23.5378 0.986767 23.1696 0.986767C22.5571 1.0018 21.9447 1.0018 21.336 0.964223C20.8964 0.919135 20.4831 0.821445 20.2163 0.426925C22.7525 -0.249394 25.2812 -0.0464984 27.8061 0.509586C28.0879 0.768842 28.6327 0.592248 28.7793 1.08446C28.8131 1.76829 28.783 2.38449 27.8061 1.98246Z" fill="#FEFEFE"/>
<path d="M27.8056 1.9832C28.5496 1.94563 28.5721 1.43463 28.5271 0.882307C29.8459 0.859763 30.4546 1.0852 29.6843 2.64825C28.8276 4.3879 28.5496 6.30037 29.9661 8.01372C30.2216 8.29552 30.3982 8.6224 30.5297 8.97184C31.6081 11.9589 37.5371 12.3346 39.8704 10.099C40.5392 9.46029 41.1291 8.40072 42.3691 9.11086C42.4442 9.20103 42.478 9.30624 42.478 9.42272C40.8924 11.0647 39.3745 12.8193 36.8721 13.0222C32.5249 13.3754 29.4739 12.0341 27.9635 7.66053C27.2871 5.71423 27.7455 3.8769 27.8056 1.9832Z" fill="#FEFEFE"/>
<path d="M20.2163 0.427734C20.6146 0.469065 21.0128 0.510396 21.4111 0.551726C21.7342 0.683233 21.9259 0.889886 21.7981 1.26562C20.7423 4.26772 20.9677 7.25104 21.9221 10.2268C22.0987 10.7754 22.2227 11.3127 21.8282 11.8237C21.2232 12.1281 20.6409 12.5038 19.9157 12.4474C19.8631 12.0529 19.4874 11.8275 19.3934 11.4517C19.5813 10.4034 18.9275 9.52047 18.811 8.53981C18.6006 6.75132 18.2512 4.97035 18.7397 3.1518C18.8787 2.63329 19.3934 1.69395 18.1084 1.66014C17.6425 1.64887 17.1841 1.62632 16.8647 1.21677C17.913 0.634387 19.0553 0.491609 20.2163 0.427734Z" fill="#FEFEFE"/>
<path d="M21.8281 11.8163C21.2457 9.35904 20.5018 6.96186 20.5919 4.35052C20.6408 2.97158 21.5125 1.88195 21.411 0.544343C22.0385 0.525557 22.666 0.503013 23.2935 0.480469C23.7406 1.18685 23.4287 1.86692 23.316 2.5996C22.9065 5.27106 22.5495 7.96507 24.1088 10.4487C24.3117 11.1851 23.6316 11.0837 23.2897 11.3053C23.0417 11.4368 22.79 11.5683 22.542 11.6999C22.3053 11.7449 22.0686 11.7825 21.8281 11.8163Z" fill="#FEFEFE"/>
<path d="M30.8082 1.23828C31.5146 1.27585 32.1458 1.52384 32.7094 1.9409C32.9386 2.5045 32.4878 2.8652 32.2811 3.27851C30.8458 6.15662 32.856 9.20006 35.9069 9.00468C36.2751 8.98214 36.6434 8.98965 37.0116 8.96335C37.9396 9.1174 38.4845 7.86621 39.4839 8.29079C39.6755 8.53877 39.7018 8.81306 39.6304 9.10989C39.4313 9.59458 39.0668 9.92898 38.646 10.2145C36.5306 11.5296 34.419 11.2741 32.3112 10.1882C29.4218 7.7347 29.1325 6.2994 30.6316 1.93339C30.5715 1.66662 30.5865 1.42615 30.8082 1.23828Z" fill="#FEFEFE"/>
<path d="M37.1919 9.48627C36.2601 9.4487 35.2945 9.55766 34.4077 9.34725C31.3342 8.61833 30.1131 4.40636 32.7094 1.94531C32.9687 2.04676 33.2242 2.14445 33.4834 2.2459C33.9832 2.98234 33.7089 3.59478 33.2918 4.29364C32.5629 5.52229 32.9086 6.75469 34.0546 7.50616C35.0916 8.18624 36.5269 7.90444 37.4061 6.96135C37.8194 6.51798 37.7668 5.53732 38.7512 5.7064C39.4839 5.78155 39.9085 6.28127 40.2992 6.82608C39.39 7.85183 38.2515 8.61833 37.1919 9.48627Z" fill="#FEFEFE"/>
<path d="M34.1897 17.3615C33.8253 16.8618 33.4646 16.3583 33.1001 15.8586C33.303 14.7163 34.1371 14.7727 34.9675 14.9117C37.3459 15.3062 39.3824 14.6637 41.1746 13.0594C42.0501 12.2741 42.9931 11.5076 44.3232 11.748C44.7967 12.135 44.9094 12.6949 45.0484 13.2397C44.5938 13.3787 44.0565 13.3599 43.8085 13.8897C43.6995 14.025 43.568 14.1264 43.414 14.2053C40.8176 16.6551 37.4548 16.8618 34.1897 17.3615Z" fill="#FEFEFE"/>
<path d="M35.6965 28.2433C35.6814 29.517 35.6702 30.7945 35.6551 32.0682C34.8248 29.7011 35.2869 27.2701 35.3057 24.8617C35.4447 24.7414 35.5875 24.6212 35.7303 24.5085C36.8575 23.9186 38.0899 23.8134 39.3223 23.5955C41.6368 23.1859 43.8837 22.4795 45.6797 20.8113C46.4349 20.2777 47.1263 20.041 47.4982 21.2133C47.2916 22.3217 46.3673 22.7801 45.5595 23.3437C43.012 24.6813 40.3405 25.5981 37.4399 25.7559C36.9514 25.7822 36.4141 25.7672 36.2563 26.4097C36.23 26.5938 36.2075 26.7742 36.1849 26.9545C36.1549 27.4355 36.0384 27.8826 35.6965 28.2433Z" fill="#FEFEFE"/>
<path d="M47.2802 18.6719C47.3102 19.2317 47.3403 19.7953 47.3703 20.3552C46.6039 20.1485 45.9651 20.2387 45.2249 20.7046C42.8991 22.1662 40.3404 23.0755 37.5825 23.3573C36.9062 23.4287 36.2224 23.5376 35.6287 23.0529C35.4934 22.7861 35.5009 22.5156 35.5874 22.2376C35.9706 21.6589 36.5793 21.4598 37.203 21.4523C40.5283 21.411 43.0494 19.5811 45.5819 17.7664C45.8111 17.5935 46.0666 17.5033 46.3521 17.5146C46.6339 17.5597 46.8481 17.7062 47.0059 17.9429C47.1449 18.1684 47.2426 18.4089 47.2802 18.6719Z" fill="#FEFEFE"/>
<path d="M35.696 22.2409C35.696 22.4889 35.696 22.7407 35.696 22.9887C35.8952 23.2179 36.0379 23.4696 36.0793 23.7777C36.1169 24.1985 35.9778 24.5592 35.681 24.856L35.4969 24.8636L35.3128 24.8598C35.2978 23.5372 35.2827 22.2184 35.2677 20.8958C34.8544 19.7649 35.418 19.2238 36.455 19.0848C37.6987 18.9157 38.8447 18.3822 40.0884 18.2018C41.704 17.9726 42.9552 17.0333 44.1312 15.9775C44.8226 15.3575 45.5515 14.8766 46.4194 15.722C46.8365 16.4659 47.5391 17.1498 46.9304 18.1116C46.8027 17.9914 46.6712 17.8749 46.5434 17.7547C46.0963 17.2249 45.6379 17.3527 45.172 17.7284C42.5832 19.5169 39.7389 20.6065 36.6128 20.9597C36.4362 20.9785 36.3197 21.1701 36.2371 21.3429C36.1093 21.6811 35.9478 21.9892 35.696 22.2409Z" fill="#FEFEFE"/>
<path d="M44.327 11.7476C43.0119 12.3338 41.8133 13.0476 40.6749 13.9795C39.0292 15.3321 37.0453 15.8694 34.8736 15.2833C34.1935 15.0992 33.5585 15.2607 33.1001 15.8544C32.9536 15.6252 32.8033 15.3997 32.6567 15.1705C33.1189 14.111 34.0845 14.2951 34.9036 14.3777C37.7442 14.6633 40.1376 13.8893 41.9787 11.6462C42.4033 11.1277 42.9556 10.921 43.6169 10.9698C43.8536 11.2291 44.0903 11.4884 44.327 11.7476Z" fill="#FEFEFE"/>
<path d="M34.1895 17.3606C35.0461 16.1582 36.3988 16.7556 37.5034 16.4513C39.3332 15.9478 41.3359 15.8126 42.5796 14.0579C42.8651 13.6521 43.2333 13.84 43.579 13.9827C44.0975 14.9033 43.3912 15.403 42.8351 15.8351C41.5651 16.827 40.2989 17.8678 38.5442 17.8866C37.7176 17.8941 36.9887 18.2999 36.2372 18.5742C35.5571 18.3487 35.3918 19.0965 34.9221 19.2768C34.6779 18.6381 34.4337 17.9993 34.1895 17.3606Z" fill="#FEFEFE"/>
<path d="M16.5186 12.8671C15.5756 12.3448 14.5573 12.3861 13.5353 12.4688C13.4001 11.9653 13.7908 11.8864 14.114 11.7549C14.3544 11.6985 14.5986 11.676 14.8391 11.6497C15.3914 11.5708 15.2374 11.2176 15.1209 10.8794C15.0646 10.7216 15.0307 10.5638 15.0044 10.4023C14.8466 8.17416 14.6475 5.94982 14.6512 3.71421C14.655 3.54889 14.6663 3.38732 14.6776 3.222C14.7226 2.7824 14.2342 2.51562 14.2943 2.07226C14.5949 2.05723 14.6512 1.52369 15.0533 1.71531C15.9588 1.62138 16.575 1.95203 16.7704 2.89512C16.7967 3.10177 16.7854 3.30466 16.7441 3.5038C16.6501 6.04 16.4961 8.56492 17.3979 11.0297C17.6496 11.7324 18.1982 12.9272 16.5186 12.8671Z" fill="#FEFEFE"/>
<path d="M16.5377 3.11049C16.5377 2.9865 16.5377 2.85875 16.5377 2.73476C17.1239 2.07723 16.0606 1.85179 16.1695 1.31824C16.4025 1.28443 16.6392 1.25061 16.8721 1.2168C17.3869 1.22431 17.8979 1.23183 18.4127 1.23558C18.5968 1.50987 18.6494 1.82173 18.5629 2.12231C17.7739 4.79753 18.1647 7.38633 19.104 9.93756C19.3182 10.5237 19.3332 11.1512 19.5436 11.7373C20.1561 11.7148 20.141 12.0229 19.9193 12.4437C19.2994 12.8608 18.6794 13.2741 18.0595 13.6911C16.8646 10.2607 16.395 6.7288 16.5377 3.11049Z" fill="#FEFEFE"/>
<path d="M35.6924 23.738C35.6924 23.49 35.6961 23.2383 35.6961 22.9903C39.3821 22.9189 42.805 21.9833 45.7545 19.7177C46.8216 18.8986 46.8817 20.0295 47.3702 20.3564C47.7684 21.0703 47.7121 21.8405 47.6632 22.6108C46.8554 22.4906 47.1109 21.9946 47.28 21.5287C47.0884 20.3714 46.4947 20.6269 45.8334 21.1154C43.1432 23.1406 39.8668 23.505 36.7407 24.2903C36.2372 24.4143 35.9216 24.1475 35.6924 23.738Z" fill="#FEFEFE"/>
<path d="M38.7545 5.69878C37.8941 6.89361 37.477 8.51678 35.4255 8.4003C33.9677 8.31764 33.1072 7.60375 32.5511 6.43522C32.1003 5.49588 32.0702 4.52274 33.0734 3.79382C33.6069 3.40681 33.3778 2.76806 33.483 2.23828C33.9789 2.33221 34.426 2.49754 34.6026 3.03483C34.8281 3.49699 34.5388 3.84266 34.3734 4.24094C33.9113 5.35686 34.3096 7.02888 35.1362 7.12281C36.316 7.25807 36.8608 6.42395 37.0562 5.34559C37.2741 5.03749 37.5296 4.81581 37.9429 4.97737C38.2172 5.2216 38.4877 5.45831 38.7545 5.69878Z" fill="#FEFEFE"/>
<path d="M34.9224 19.2782C35.0802 18.9175 34.866 18.1961 35.6926 18.4817C38.845 18.1923 41.6593 17.1365 44.0189 14.9498C44.5937 14.4162 45.3565 13.894 46.0591 14.8972C46.3296 15.1865 46.5363 15.4833 46.2019 15.859C45.6646 15.5284 45.1761 15.4796 44.7177 16.0281C42.5873 18.5794 39.4875 18.8649 36.5343 19.4811C35.7452 19.6464 35.1854 19.9733 35.2568 20.8939C34.9073 20.4092 34.9336 19.8418 34.9224 19.2782Z" fill="#FEFEFE"/>
<path d="M15.0424 12.049C14.7831 12.0453 14.5239 12.0378 14.2646 12.034C12.9232 10.3056 12.9871 8.2316 12.818 6.21767C12.7354 5.22574 13.1374 4.07975 11.9351 3.44476C12.4724 3.11036 13.0059 2.77596 13.5432 2.44531C14.0354 2.67451 14.877 2.12594 15.0311 3.11036C14.2721 5.65407 14.614 8.14518 15.4068 10.6137C15.4068 10.7377 15.4068 10.8655 15.4068 10.9895C15.8164 11.523 15.5233 11.8198 15.0424 12.049Z" fill="#FEFEFE"/>
<path d="M42.3691 9.11486C41.4072 8.9796 40.9 9.6747 40.3739 10.2608C38.1909 12.7031 32.5925 12.7181 30.2817 9.80245C30.1427 9.62586 30.1314 9.34406 30.0601 9.11111C31.2023 8.47987 31.5104 9.77991 32.2619 10.058C32.709 10.2909 33.111 10.6216 33.622 10.723C34.1631 11.0236 34.7567 10.9973 35.3504 10.9898C36.038 11.0161 36.7143 10.9823 37.3568 10.6967C38.4276 10.5614 39.1941 9.99408 39.6976 9.04723C40.0809 8.45733 40.419 7.80731 41.3095 7.98766C41.6214 8.40097 42.324 8.44606 42.3691 9.11486Z" fill="#FEFEFE"/>
<path d="M11.9349 3.44531C12.893 3.50543 13.513 3.58058 13.28 4.97455C12.8818 7.37548 13.6746 9.71629 14.2645 12.0383C14.0202 12.1811 13.776 12.3276 13.5355 12.4704C13.4228 12.508 13.3101 12.5456 13.1936 12.5831C12.9832 10.5316 12.3257 8.53274 12.4046 6.44742C12.4534 5.17368 11.191 5.94769 10.6875 5.18871C9.83081 4.52742 13.5806 5.08351 11.2623 3.85862C11.3939 3.56179 11.6343 3.45283 11.9349 3.44531Z" fill="#FEFEFE"/>
<path d="M16.5375 3.10938C17.3754 4.31548 16.9959 5.76205 17.0598 7.02827C17.1763 9.30521 18.2847 11.398 18.063 13.69C17.1237 14.216 17.0936 13.0325 16.5225 12.8709C17.522 12.7169 17.2702 12.1007 17.0147 11.5032C16.0679 9.30145 16.0867 6.97942 16.1693 4.64988C16.1843 4.11258 16.0153 3.52644 16.5375 3.10938Z" fill="#FEFEFE"/>
<path d="M28.5537 32.3639C27.667 30.8046 28.3884 29.0837 28.0653 27.4681C27.9375 27.0284 27.7196 26.6114 27.7121 26.138C27.7121 25.5218 27.6257 24.9131 27.5317 24.3081C27.5956 23.5416 27.1861 23.102 26.5135 22.8428C25.2285 22.065 23.9172 21.3136 23.5527 19.6791C23.8345 19.1005 24.3192 18.969 24.7776 19.3447C25.8785 20.2502 27.3815 20.5997 28.2306 21.8471C28.3396 25.3527 28.4448 28.8583 28.5537 32.3639Z" fill="#FEFEFE"/>
<path d="M45.9051 15.0851C45.5632 15.0964 45.4618 14.3862 44.8681 14.9198C43.9664 15.7313 42.8579 16.31 41.8547 17.0164C39.9911 18.3239 37.9471 18.8349 35.689 18.4817C36.7072 17.7415 37.872 17.5424 39.0969 17.2982C41.0244 16.9187 42.7452 15.9793 43.5718 13.9842C44.1843 14.2171 44.8042 13.3417 45.4167 13.9955C45.5595 14.1195 45.7022 14.2397 45.845 14.3637C46.0404 14.5929 46.063 14.8333 45.9051 15.0851Z" fill="#FEFEFE"/>
<path d="M30.8081 1.23786C30.8081 1.48584 30.8081 1.73382 30.8081 1.98181C29.8688 3.47722 29.3089 5.04027 29.9139 6.825C30.0942 7.3623 30.1543 7.90711 29.6809 8.35799C28.0991 6.56199 28.1479 3.80787 29.85 1.43699C29.3991 1.24537 28.9633 1.06502 28.5237 0.880909C28.2832 0.756917 28.0427 0.632925 27.8022 0.508933C28.8768 0.460088 29.8613 0.771946 30.8081 1.23786Z" fill="#FEFEFE"/>
<path d="M37.1955 5.36124C37.932 6.62746 36.8236 6.90926 36.1172 7.43904C35.6363 7.79599 35.2267 8.10409 34.6894 7.53673C33.8515 6.65376 33.3368 5.65055 33.7313 4.43318C33.8966 3.9297 34.3062 3.50512 34.6067 3.04297C34.9675 3.20078 35.3319 3.35858 35.6926 3.52015C35.903 3.71553 35.9218 3.95224 35.8316 4.20774C35.5724 4.66989 34.7984 4.68868 34.8059 5.38378C35.1741 6.40202 35.7339 6.31184 36.3877 5.66558C36.4854 5.53032 36.6019 5.4176 36.7334 5.3124C36.895 5.24476 37.049 5.26355 37.1955 5.36124Z" fill="#FEFEFE"/>
<path d="M28.2303 21.8438C26.9904 21.0998 25.5175 20.7353 24.5294 19.5631C24.2851 19.2737 23.9582 19.5105 23.6764 19.6044C23.1429 19.7622 22.662 20.0741 22.0984 20.1492C21.9293 20.1379 21.7903 20.0665 21.6851 19.935C21.8917 19.3301 22.3614 19.0333 22.94 18.8642C24.24 18.357 25.4461 18.7665 26.6447 19.2399C27.3624 19.9989 28.1965 20.679 28.2303 21.8438Z" fill="#FEFEFE"/>
<path d="M21.1478 24.1023C21.129 26.4582 21.1215 28.8178 21.0764 31.1736C21.0651 31.8312 21.2981 32.5526 20.7119 33.1124C20.742 29.8323 20.7645 26.5521 20.8021 23.272C20.8096 22.667 20.6293 22.0283 21.005 21.4609C21.0726 21.5135 21.1365 21.5699 21.2041 21.6225C21.3957 21.9268 21.4333 22.265 21.4521 22.6107C21.4634 22.7835 21.4596 22.9526 21.4446 23.1254C21.4183 23.4711 21.2379 23.7717 21.1478 24.1023Z" fill="#FEFEFE"/>
<path d="M47.2766 21.5234C47.3442 21.9067 47.269 22.3388 47.6598 22.6056C47.6636 23.357 47.6711 24.1085 47.6748 24.8599C47.5621 25.0328 47.4494 25.0215 47.3367 24.8562C46.991 24.6157 46.8407 24.0484 46.2508 24.2212C45.6045 24.1911 45.4993 23.7327 45.458 23.2218C45.458 23.1428 45.458 23.0602 45.4618 22.9813C46.0629 22.5003 46.6716 22.0119 47.2766 21.5234Z" fill="#FEFEFE"/>
<path d="M37.1919 9.48606C38.0937 8.44153 38.8113 7.17906 40.303 6.81836C40.5472 7.0701 40.7914 7.32184 41.0356 7.57734C40.5585 7.9418 40.1827 8.51667 39.4463 8.36262C38.5746 8.49413 38.1763 9.57248 37.1919 9.48606Z" fill="#FEFEFE"/>
<path d="M37.1957 5.36047C37.0679 5.36047 36.9439 5.36047 36.8162 5.36047C35.9257 5.49949 35.7716 4.90208 35.689 4.23327C35.689 3.99281 35.689 3.75234 35.689 3.51562C36.6659 3.66216 37.4098 4.16189 37.9471 4.98474C37.6954 5.10873 37.4474 5.23272 37.1957 5.36047Z" fill="#FEFEFE"/>
<path d="M45.424 13.9956C44.8116 13.6386 44.1879 14.965 43.5792 13.9843C43.5303 12.6692 43.9925 12.3649 45.052 13.2404C45.176 13.4921 45.3 13.7438 45.424 13.9956Z" fill="#FEFEFE"/>
<path d="M16.1695 1.31775C16.4325 1.81747 17.2741 1.32151 17.3681 1.93771C17.4432 2.41865 17.0525 2.71172 16.5377 2.73426C16.0417 2.3961 15.5458 2.05418 15.0498 1.71602C15.4143 1.55446 15.6472 1.02843 16.1695 1.31775Z" fill="#FEFEFE"/>
<path d="M39.4463 8.35778C39.8784 7.90315 40.3255 7.4673 41.0356 7.5725C41.2273 7.64389 41.3663 7.74909 41.3062 7.98581C40.814 8.35778 40.318 8.73351 39.8258 9.10549C39.698 9.237 39.574 9.237 39.4463 9.10549C39.4463 8.85751 39.4463 8.60952 39.4463 8.35778Z" fill="#FEFEFE"/>
<path d="M26.6452 19.2433C25.3902 19.326 24.2217 18.5445 22.9404 18.8676C24.2593 18.165 25.5217 18.0184 26.6452 19.2433Z" fill="#FEFEFE"/>
<path d="M47.3364 24.8652C47.4491 24.8652 47.5619 24.8652 47.6746 24.869C47.7159 25.9023 47.8437 26.9393 47.3778 27.9237C47.3627 26.9017 47.3477 25.8835 47.3364 24.8652Z" fill="#FEFEFE"/>
<path d="M21.6852 19.9395C21.8468 19.9545 22.0084 19.9695 22.1699 19.9845C22.2977 20.0973 22.3803 20.2363 22.4179 20.4016C22.4029 21.2695 21.704 21.3409 21.0991 21.5213L21.0052 21.4612C20.945 20.8262 21.2043 20.334 21.6852 19.9395Z" fill="#FEFEFE"/>
<path d="M15.0348 3.10553C14.7116 2.49684 13.9113 2.94772 13.5469 2.44048C13.7949 2.31649 14.0466 2.1925 14.2946 2.07227C14.3397 2.56072 15.7449 2.07978 15.0348 3.10553Z" fill="#FEFEFE"/>
<path d="M46.9984 29.8497C47.0323 29.1734 46.6603 28.4182 47.3892 27.8809C47.4305 28.5722 47.4005 29.2485 46.9984 29.8497Z" fill="#FEFEFE"/>
<path d="M21.1479 24.1013C21.1479 23.7293 21.1479 23.3611 21.1479 22.9891C21.813 22.3992 22.4517 22.8801 23.098 23.0342C23.2596 23.0981 23.4099 23.1807 23.5526 23.2746C24.2027 23.8119 24.8489 24.353 25.7469 24.4131C26.7539 24.586 27.7045 24.8415 28.0689 25.9686C28.0652 26.4684 28.0652 26.9719 28.0614 27.4716C25.8747 26.1077 23.9359 24.2328 21.1479 24.1013Z" fill="#FEFEFE"/>
<path d="M46.2093 24.1125C46.2657 23.7255 46.4009 23.316 46.8631 23.4588C47.5882 23.6842 47.2463 24.368 47.3365 24.864C45.0971 26.4195 42.5008 27.1597 39.9195 27.8022C38.5819 28.1366 37.1429 28.4635 35.6963 28.2418C35.6963 27.7421 35.7 27.2424 35.7 26.7464C37.6163 26.6675 39.5212 26.4609 41.3473 25.8559C42.9817 25.3149 44.4283 24.2478 46.2093 24.1125Z" fill="#FEFEFE"/>
<path d="M23.2898 11.3156C23.5415 11.0826 23.7932 10.8459 24.045 10.6129C22.3993 7.5169 22.8239 4.30814 23.5415 1.08811C23.6392 0.652263 24.1389 0.719895 24.417 0.498212C24.8415 0.674807 25.9161 0.0398185 25.5179 1.26095C24.3944 4.67636 24.928 7.92645 26.5323 11.3156C25.3338 11.3156 24.3118 11.3156 23.2898 11.3156Z" fill="#FEFEFE"/>
<path d="M24.4167 0.4976C23.1805 2.59419 23.1354 4.86362 23.4698 7.17813C23.6351 8.32787 23.8531 9.46634 24.0447 10.6123C22.3915 9.9548 22.7522 8.37672 22.5831 7.14056C22.2712 4.88992 22.7334 2.66934 23.2932 0.486328C23.669 0.490085 24.0409 0.493842 24.4167 0.4976Z" fill="#FEFEFE"/>
<path d="M29.6809 8.35861C29.4742 6.50625 28.9407 4.67643 29.8236 2.80903C30.0791 2.27174 30.2745 2.02375 30.8081 1.98242C30.9546 2.05757 31.0974 2.13647 31.2439 2.21162C29.0571 5.11603 30.1956 7.55454 32.311 9.85778C32.4087 9.94044 32.4387 10.0269 32.4049 10.1095C32.3711 10.1922 32.341 10.2335 32.3072 10.2335C31.3378 10.2899 31.0222 9.0462 30.0528 9.10632C30.0491 8.80197 29.9852 8.52017 29.6809 8.35861Z" fill="#FEFEFE"/>
<path d="M19.5436 11.7367C17.5409 8.41146 16.9623 4.93217 18.4126 1.23872C19.0739 0.930618 19.6525 0.690149 19.4271 1.86995C18.8635 4.83448 18.6268 7.78023 20.0358 10.617C20.2838 11.1205 19.6074 11.3159 19.5436 11.7367Z" fill="#FEFEFE"/>
<path d="M32.311 10.2371C32.311 10.1131 32.311 9.98532 32.311 9.86133C34.4377 10.703 36.5681 10.9547 38.6947 9.86133C38.9089 10.8232 37.947 10.6128 37.5675 10.9885C36.8161 11.1125 36.1097 11.4958 35.3131 11.3643C34.7533 10.9021 33.9981 11.4319 33.4345 10.9885C32.8972 10.9848 32.5214 10.733 32.311 10.2371Z" fill="#FEFEFE"/>
<path d="M37.5713 10.9843C37.947 10.6085 38.3228 10.2328 38.6985 9.85708C38.8413 9.50014 39.093 9.2484 39.45 9.10938C39.5777 9.10938 39.7017 9.10938 39.8294 9.10938C39.5289 10.2779 38.8488 10.9956 37.5713 10.9843Z" fill="#FEFEFE"/>
<path d="M35.7002 26.3681C35.7453 25.6053 36.1774 25.2221 36.9176 25.2521C40.0023 25.3761 42.7151 24.1362 45.458 22.9902V22.994C45.7961 23.5313 45.5707 24.0911 45.1499 24.279C42.1553 25.6279 39.2208 27.3487 35.7002 26.3681Z" fill="#FEFEFE"/>
<path d="M35.7002 26.3681C38.5933 26.5109 41.261 25.5377 43.9363 24.6585C44.7065 24.4067 45.3941 23.9484 45.458 22.9902C45.7097 23.366 45.9577 23.7379 46.2094 24.1137C42.8955 25.7331 39.7093 27.8823 35.704 26.7438C35.7002 26.6198 35.7002 26.4958 35.7002 26.3681Z" fill="#FEFEFE"/>
<path d="M35.6928 23.7377C37.4136 24.4328 38.8978 23.3169 40.4571 23.0013C42.3019 22.6293 44.0453 21.7651 45.8338 21.1113C45.4618 22.5053 44.034 22.3813 43.1022 22.9336C40.8328 24.2825 38.0975 23.9819 35.6777 24.8536C35.6815 24.4854 35.6852 24.1097 35.6928 23.7377Z" fill="#FEFEFE"/>
<path d="M35.6963 22.2425C35.6963 21.8667 35.6963 21.491 35.6963 21.1153C37.5036 20.5366 39.3785 20.1947 41.2158 19.7514C42.9141 19.3381 43.8797 17.7149 45.6156 17.5684C45.6908 17.6247 45.7622 17.6811 45.8373 17.7374C45.8411 18.5114 45.2174 18.7143 44.7026 19.0675C41.9823 20.9462 39.014 22.0772 35.6963 22.2425Z" fill="#FEFEFE"/>
<path d="M45.4541 17.3609C45.4842 17.1468 45.4691 16.8086 45.766 16.8837C46.1755 16.9889 46.416 17.3459 46.5362 17.7592C46.3033 17.7517 46.0665 17.7442 45.8336 17.7404L45.8298 17.7367C45.7209 17.5939 45.4766 17.5864 45.4541 17.3609Z" fill="#FEFEFE"/>
<path d="M45.4539 17.3621C45.5779 17.4861 45.7057 17.6139 45.8297 17.7379C43.0041 19.5752 39.9119 20.6987 36.5904 21.2209C36.3048 21.266 35.993 21.157 35.6924 21.1195C35.745 20.5897 36.0568 20.4093 36.5641 20.3642C39.213 20.1275 41.768 19.6391 43.8683 17.8017C44.2854 17.4373 44.8678 17.3058 45.4539 17.3621Z" fill="#FEFEFE"/>
<path d="M15.4105 10.6089C15.2902 10.5788 15.1136 10.5901 15.061 10.5112C14.0165 9.04956 14.009 4.58586 15.0347 3.10547C15.1587 5.60785 15.2865 8.11023 15.4105 10.6089Z" fill="#FEFEFE"/>
<path d="M15.0425 12.0476C15.1665 11.6906 15.2905 11.3374 15.4107 10.9805C15.7263 11.1646 16.1396 11.3412 15.9931 11.7808C15.839 12.2429 15.3919 12.0626 15.0425 12.0476Z" fill="#FEFEFE"/>
<path d="M33.438 10.9845C34.0692 11.0747 34.7906 10.7328 35.3167 11.3603C34.6817 11.2701 33.964 11.6082 33.438 10.9845Z" fill="#FEFEFE"/>
<path d="M28.0729 25.9657C27.3252 25.3871 26.5925 24.7784 25.5517 24.8611C24.8265 24.32 24.0939 23.794 23.2973 23.3619C22.636 22.9373 22.0085 22.4188 21.1368 22.5841C21.1256 22.231 21.1143 21.874 21.103 21.5208C21.2233 20.9159 22.2227 21.1226 22.1739 20.3636C22.3242 20.2433 22.482 20.2208 22.6548 20.311C24.0112 22.0656 25.9011 23.1027 27.8099 24.1134C28.1255 24.6958 28.2232 25.3157 28.0729 25.9657Z" fill="#FEFEFE"/>
<path d="M27.8057 24.1093C25.401 23.7711 23.6162 22.565 22.5454 20.3632C23.2217 20.0626 23.4246 20.0401 24.0408 20.7953C24.7585 21.6745 25.5964 22.2983 26.6785 22.6101C27.4525 22.813 28.4632 22.8356 27.8057 24.1093Z" fill="#FEFEFE"/>
<path d="M26.6787 22.6136C25.529 22.824 24.8451 22.1139 24.1162 21.4C23.6766 20.9641 23.2783 20.3855 22.5457 20.3667C22.4217 20.3667 22.2939 20.3667 22.1699 20.3667C22.1699 20.2427 22.1699 20.115 22.1699 19.991C22.6095 19.619 22.9853 18.984 23.6729 19.6153C24.4018 20.8815 25.5628 21.7269 26.6787 22.6136Z" fill="#FEFEFE"/>
<path d="M35.6924 4.23412C36.0681 4.60985 36.4439 4.98558 36.8196 5.36132C36.8196 5.48531 36.8196 5.61306 36.8196 5.73705C35.775 6.79662 34.9597 6.23302 34.1895 5.36132C34.2421 4.38817 34.8808 4.2003 35.6924 4.23412Z" fill="#FEFEFE"/>
<path d="M34.1895 5.36133C35.0724 5.43647 35.8239 6.44344 36.8196 5.73706C35.6135 7.17988 35.1701 7.116 34.1895 5.36133Z" fill="#FEFEFE"/>
<path d="M21.1367 22.5845C22.4856 21.1041 22.6547 22.8851 23.2972 23.3623C22.5795 23.2383 21.8656 23.1143 21.148 22.9903C21.1442 22.8551 21.1405 22.7198 21.1367 22.5845Z" fill="#FEFEFE"/>
<path d="M23.2969 23.3618C24.4466 23.2642 25.014 24.0419 25.5513 24.861C24.5669 24.7107 23.7816 24.2636 23.2969 23.3618Z" fill="#FEFEFE"/>
<path d="M62.0015 21.6198C60.8555 21.9392 60.8179 23.0213 60.4384 23.8705C60.104 26.1023 60.3746 28.3492 60.2844 30.5886C60.2543 31.2686 60.4009 31.9637 60.1491 32.6288C59.7471 33.9401 59.1234 35.1011 57.5303 34.9583C55.8169 34.8043 55.2796 33.4592 55.2533 32.0201C55.1782 27.9772 55.1894 23.9306 55.2496 19.8877C55.2646 18.7605 55.5652 17.5957 56.8164 17.1486C57.9661 16.739 59.0445 16.9532 59.8298 17.9714C60.1717 18.4111 60.4084 18.3848 60.863 18.0804C63.7449 16.1567 66.5967 16.5286 69.4109 18.272C70.6546 18.6853 71.0642 19.7712 71.3272 20.8608C72.259 24.6783 72.0674 28.5483 71.6465 32.4033C71.4812 33.91 70.6772 34.9395 69.0352 35.0823C67.3294 35.026 66.36 34.1242 66.0444 32.4785C65.7363 31.0131 65.9317 29.529 65.958 28.0599C65.988 26.5194 65.7062 25.0127 65.7062 23.4834C65.4244 22.7132 65.06 22.0068 64.316 21.5747C63.542 21.338 62.7717 21.4395 62.0015 21.6198Z" fill="#FEFEFE"/>
<path d="M86.7738 34.443C84.8162 35.202 82.7985 35.3786 80.7207 35.1306C77.3128 34.7211 75.0547 32.6508 74.7503 29.2654C74.4197 25.6133 74.3257 21.9349 74.8818 18.2827C75.6746 17.0917 76.7905 16.6633 78.1244 17.1405C79.3681 17.5876 79.6461 18.7299 79.6762 19.8946C79.7325 21.9536 79.695 24.0164 79.7401 26.0754C79.7588 26.8795 79.8603 27.6911 79.9955 28.4839C80.221 29.8215 81.134 30.34 82.4078 30.3438C83.7641 30.3475 84.6471 29.7689 84.9252 28.3561C85.2295 26.8044 85.1018 25.2451 85.1318 23.6895C85.1581 22.3782 85.1093 21.0632 85.2107 19.7594C85.3648 17.798 86.2064 16.9263 87.7958 16.994C89.5354 17.0691 90.1591 18.1437 90.1366 19.7443C89.7233 19.9998 90.3019 20.7964 89.4903 20.8828C89.3062 20.9016 89.2236 20.3868 89.2949 20.7626C89.7496 23.0996 89.4001 25.4442 89.4903 27.7775C89.5091 28.296 89.3062 28.946 90.1028 29.1264C90.0351 31.5424 88.7351 33.1993 86.7738 34.443Z" fill="#FEFEFE"/>
<path d="M152.5 17.155C152.921 17.1099 153.545 16.8619 153.736 17.0536C155.472 18.7707 157.054 17.5533 158.696 16.9296C159.083 16.783 159.549 16.8507 159.977 16.8206C161.356 16.8018 161.999 17.6698 162.262 18.8496C162.521 20.0031 162.044 20.9199 161.067 21.5699C160.233 22.1297 159.316 22.528 158.384 22.8849C156.986 23.4185 156.355 24.4067 156.374 25.8983C156.397 27.9536 156.389 30.0088 156.378 32.0641C156.246 33.6159 155.589 34.852 154.037 35.3217C152.778 35.7012 151.722 35.2278 150.96 34.1419C150.61 33.5219 150.46 32.8569 150.471 32.1505C150.663 27.8634 150.727 23.5763 150.967 19.2929C150.922 18.7481 150.967 18.2371 151.463 17.8839C151.933 17.8201 152.256 17.542 152.5 17.155Z" fill="#FEFEFE"/>
<path d="M90.1025 29.1185C88.8889 30.133 88.8738 28.7165 88.9114 28.3483C89.1744 25.8121 88.964 23.2796 89.0053 20.7472C89.0204 19.883 90.1776 20.5255 90.1363 19.7402C90.3505 22.8626 90.3993 25.9924 90.1025 29.1185Z" fill="#FEFEFE"/>
<path d="M150.968 32.5619C150.291 30.826 150.93 28.9962 150.592 27.234C150.592 25.6071 150.592 23.9802 150.592 22.357C150.201 21.7333 150.329 21.1096 150.596 20.4896C150.72 20.0913 150.844 19.6893 150.968 19.291C150.968 23.7134 150.968 28.1395 150.968 32.5619Z" fill="#FEFEFE"/>
<path d="M60.1491 32.6293C60.2543 29.7098 59.702 26.7678 60.4384 23.8672C60.2882 26.7866 60.8067 29.7286 60.1491 32.6293Z" fill="#FEFEFE"/>
<path d="M137.979 35.0518C137.945 34.9504 137.9 34.8527 137.843 34.7625C137.896 34.4243 137.712 33.9246 138.114 33.8006C138.546 33.6691 138.29 34.244 138.508 34.4093C138.79 34.6235 139.068 34.8489 139.346 35.0706C139.222 35.1082 139.102 35.1458 138.978 35.1833C138.644 35.1382 138.309 35.0931 137.979 35.0518Z" fill="#FEFEFE"/>
<path d="M152.5 17.1562C152.414 17.7687 152.275 18.3022 151.463 17.8814C151.647 17.4117 151.989 17.1638 152.5 17.1562Z" fill="#FEFEFE"/>
<path fill-rule="evenodd" clip-rule="evenodd" d="M99.0376 13.4023C98.9962 12.0271 98.861 10.6557 97.6135 9.73138C96.5164 8.74321 95.562 9.03628 94.6941 10.0545C94.108 10.9675 93.8374 11.9595 93.8374 13.0491C93.845 19.1999 93.8487 25.3544 93.8374 31.5051C93.8337 32.7375 94.1418 33.8309 95.0435 34.7139C96.3098 35.9876 97.328 35.4804 98.2485 34.263C98.2979 34.1492 98.3116 34.0139 98.3248 33.8824C98.3448 33.6838 98.3639 33.4937 98.504 33.3988C98.6586 33.2922 98.7678 33.4503 98.8746 33.6048C98.9183 33.6681 98.9617 33.7309 99.0075 33.7745C100.852 35.5856 102.577 35.9763 104.373 34.9769C104.614 34.6868 104.916 34.7116 105.218 34.7364C105.331 34.7456 105.444 34.7548 105.553 34.7477C108.378 34.3156 109.723 32.4069 110.434 29.8707C110.485 29.6404 110.538 29.4101 110.592 29.1797C110.693 28.7484 110.794 28.3165 110.877 27.883C111.58 24.1821 110.712 20.9094 107.849 18.4183C105.215 16.1264 102.224 16.0775 99.0488 17.866C99.0488 17.3701 99.0521 16.8917 99.0552 16.4254C99.0622 15.376 99.0688 14.3882 99.0376 13.4023ZM103.892 29.7915C105.327 28.916 105.684 27.4845 105.808 26.1507C105.842 24.2757 105.154 22.6977 104.091 21.9913C102.81 21.1346 101.036 21.3601 100.011 22.5136C98.6242 24.0728 98.5604 27.2741 99.8867 28.9762C100.882 30.2537 102.551 30.6106 103.892 29.7915Z" fill="#FEFEFE"/>
<path d="M99.1126 33.3988C98.7745 33.6543 98.4326 33.9061 98.0944 34.1616C98.2447 33.6318 97.3166 32.993 98.1357 32.5948C98.7482 32.2979 99.1502 32.685 99.1126 33.3988Z" fill="#FEFEFE"/>
<path fill-rule="evenodd" clip-rule="evenodd" d="M123.795 30.1973C122.108 30.7121 120.466 30.7872 119.087 29.4045C118.609 27.5033 118.609 27.5033 120.387 27.4357C120.662 27.424 120.937 27.4271 121.212 27.4303C121.555 27.4342 121.897 27.4382 122.239 27.4131C123.118 27.3504 123.999 27.3883 124.881 27.4263C126.322 27.4883 127.763 27.5503 129.19 27.1727C130.885 23.9789 128.908 19.1959 125.106 17.5051C121.781 16.0284 118.534 16.3741 115.814 18.7825C112.703 21.5404 111.963 25.1738 113.173 29.0551C114.273 32.5832 116.843 34.6685 120.548 35.0931C123.43 35.4238 126.188 34.9315 128.435 32.9101C129.355 32.0835 130.017 31.0127 129.194 29.7652C128.371 28.5178 127.221 28.7132 126.041 29.273C125.309 29.6187 124.565 29.9606 123.795 30.1973ZM121.266 20.9215C119.549 21.0643 118.455 22.0487 118.057 23.9799C118.737 23.9799 119.406 23.9795 120.066 23.9791C121.365 23.9783 122.635 23.9775 123.907 23.9799C125.001 23.9837 124.79 23.3938 124.456 22.7701C123.772 21.5039 122.682 20.8012 121.266 20.9215Z" fill="#FEFEFE"/>
<path fill-rule="evenodd" clip-rule="evenodd" d="M176.487 33.5913L176.487 33.5912C177.111 33.471 177.385 32.9788 177.659 32.4828C177.761 32.3188 177.865 32.1559 177.97 31.9929C178.199 31.6332 178.429 31.2733 178.636 30.901C181.691 25.4003 179.053 18.3891 173.357 16.9312C170.603 16.2249 168.052 16.8298 165.673 18.3102C163.318 19.4825 162.498 21.673 161.912 24.0101C161.8 24.491 161.755 24.9794 161.755 25.4717C161.668 27.0948 162.029 28.6504 162.51 30.1833C162.905 31.3258 163.716 32.1485 164.527 32.9702C164.755 33.2025 164.984 33.4346 165.204 33.6739C167.714 35.8081 170.641 35.9621 173.68 35.3685C174.635 35.1806 175.653 34.9026 176.096 33.828C176.224 33.7491 176.355 33.6702 176.487 33.5913ZM170.983 21.5753C168.987 21.6242 167.605 23.4352 167.62 25.9676C167.635 28.5038 169.048 30.2698 171.065 30.2773C173.075 30.2848 174.511 28.5038 174.529 25.9827C174.545 23.3863 173.045 21.5227 170.983 21.5753Z" fill="#FEFEFE"/>
<path fill-rule="evenodd" clip-rule="evenodd" d="M131.129 25.9722C131.13 26.3883 131.131 26.8049 131.133 27.2215C131.08 27.6311 131.223 27.9993 131.403 28.36C132.286 31.3922 134.138 33.5564 137.114 34.7099C137.276 34.9579 137.513 34.9391 137.761 34.894C138.263 34.4565 138.607 34.7163 138.951 34.9759C139.127 35.1088 139.303 35.2416 139.5 35.281C139.906 35.3085 140.315 35.3037 140.722 35.2989C140.816 35.2978 140.91 35.2967 141.003 35.296C141.099 35.2691 141.195 35.2401 141.291 35.2111C141.797 35.058 142.301 34.9057 142.844 35.0668C143.1 35.0856 143.351 35.0593 143.599 34.9879C143.854 34.8984 144.112 34.816 144.369 34.7336C145.474 34.3804 146.577 34.0277 147.406 33.1168C147.781 32.6809 148.082 32.2 148.292 31.6665C148.356 31.4786 148.398 31.287 148.413 31.0916C148.022 28.7019 146.703 27.9279 144.471 28.8146C144.362 28.8582 144.253 28.9019 144.144 28.9457C143.329 29.2719 142.516 29.5976 141.668 29.8329C140.53 30.1485 139.44 30.0583 138.459 29.367C138.441 29.3538 138.422 29.3406 138.403 29.3272C138.018 29.0578 137.563 28.7388 137.738 28.1947C137.878 27.7667 138.32 27.7705 138.707 27.7738C138.765 27.7743 138.822 27.7748 138.876 27.7739C139.902 27.7543 140.927 27.7602 141.953 27.7661C143.292 27.7738 144.63 27.7815 145.967 27.7325C148.507 27.6348 149.303 26.3273 148.405 23.8662C148.386 23.7385 148.371 23.6145 148.356 23.4867C148.525 21.8711 147.887 20.6387 146.579 19.7181C141.687 15.1154 136.115 15.6978 132.155 21.2286C132.026 21.3412 132.004 21.4936 131.982 21.6461C131.962 21.7786 131.943 21.9111 131.854 22.0176C131.798 22.1379 131.742 22.2581 131.687 22.3783C131.631 22.4986 131.576 22.6188 131.52 22.739C131.169 23.0429 131.211 23.4243 131.253 23.8057C131.289 24.1269 131.324 24.4481 131.125 24.7229C131.127 25.1386 131.128 25.5552 131.129 25.9722ZM139.498 23.98C139.661 23.9778 139.823 23.9756 139.985 23.9756C140.199 23.9756 140.413 23.9715 140.627 23.9674C141.096 23.9585 141.565 23.9496 142.029 23.9831C143.562 24.0996 143.363 23.3819 142.799 22.4651C141.665 20.6128 139.061 20.3497 137.535 21.9616C137.501 21.9976 137.466 22.034 137.431 22.0709C136.989 22.5317 136.474 23.069 136.78 23.7126C136.964 24.0985 137.39 24.047 137.812 23.9962C137.986 23.9753 138.158 23.9544 138.313 23.9643C138.707 23.9909 139.103 23.9855 139.498 23.98Z" fill="#FEFEFE"/>
<path d="M142.863 34.7933C142.367 35.1728 141.8 35.1089 141.232 35.0676C141.698 34.504 142.247 34.4476 142.863 34.7933Z" fill="#FEFEFE"/>
</svg>
