<svg width="252" height="45" viewBox="0 0 252 45" fill="none" xmlns="http://www.w3.org/2000/svg">
<g clip-path="url(#clip0_184_3)">
<path d="M19.493 0C16.6059 1.0081 13.6715 2.30627 10.816 3.96266C7.36096 5.96777 4.2404 8.27246 1.58682 10.7784C0.753824 14.3385 0.324707 18.1823 0.324707 22.1909C0.324707 25.5037 0.657588 28.723 1.23185 31.7409C2.20998 31.1259 3.24333 30.159 4.18991 28.9274C4.01637 27.3329 4.15994 25.4561 4.70264 23.4193C5.20433 21.5363 5.93636 19.8466 6.79301 18.5849C9.10547 17.9166 14.1699 19.8182 18.8619 22.2305C17.371 23.0743 15.2344 24.2633 14.1685 24.727C13.4759 23.4669 12.8306 22.2242 12.2753 21.0417C11.5133 20.9118 10.7734 20.7754 10.0666 20.6851C10.2496 22.1228 10.7829 23.8743 11.6442 25.6781C10.592 25.0868 9.29199 25.0678 8.17344 25.7177C6.48222 26.6973 5.89691 28.8529 6.87189 30.5521C7.84845 32.2497 9.99246 32.841 11.6837 31.8598C12.8022 31.2115 13.4412 30.0195 13.4585 28.8086C14.5818 30.4602 15.8202 31.8138 16.9688 32.692C17.2448 32.0326 17.491 31.3605 17.7576 30.6314C17.0177 29.5567 16.2888 28.3758 15.5489 27.1442C16.2446 26.6243 17.5746 25.77 18.8225 25.0044C18.8792 24.1109 18.9213 23.1746 18.9408 22.2702C18.9414 22.244 18.9403 22.2171 18.9408 22.1909C18.952 21.7074 18.9408 21.2434 18.9408 20.7644C18.9408 20.3507 18.9503 19.8339 18.9408 19.2982C14.9683 16.594 11.4234 13.5523 10.8949 11.4125C11.5543 10.035 12.6382 8.55301 14.0107 7.17242C15.4937 5.68246 17.0839 4.61095 18.5464 3.96266C19.1333 2.52501 19.4535 1.15868 19.493 0ZM23.0821 0C23.1231 1.15868 23.4418 2.52501 24.0287 3.96266C25.4896 4.61095 27.042 5.68246 28.5249 7.17242C29.8991 8.55301 30.9813 10.035 31.6408 11.4125C31.1091 13.5618 27.55 16.6257 23.5554 19.3378C23.5459 19.8625 23.5554 20.3586 23.5554 20.7644C23.5554 21.2399 23.5446 21.7123 23.5554 22.1909C23.5562 22.2307 23.5545 22.27 23.5554 22.3098C23.5752 23.2006 23.6193 24.0863 23.6737 24.9648C24.9374 25.7383 26.3194 26.618 27.0262 27.1442C26.2863 28.3774 25.518 29.5583 24.7781 30.6314C25.0447 31.3605 25.3302 32.031 25.6063 32.692C26.7548 31.8123 27.9538 30.4602 29.0771 28.8086C29.0945 30.0195 29.7334 31.2099 30.8519 31.8598C32.5432 32.841 34.725 32.2497 35.7032 30.5521C36.6766 28.8514 36.0929 26.6973 34.4016 25.7177C33.2815 25.0678 31.9437 25.0884 30.8914 25.6781C31.7528 23.8758 32.286 22.1228 32.469 20.6851C31.7622 20.7754 31.0618 20.9102 30.2998 21.0417C29.7444 22.2226 29.1008 23.4669 28.4066 24.727C27.3399 24.2631 25.1649 23.1174 23.6737 22.2702C28.3715 19.8525 33.4652 17.9149 35.7821 18.5849C36.6403 19.8466 37.3313 21.5347 37.833 23.4193C38.3757 25.4546 38.5587 27.3329 38.3852 28.9274C39.3317 30.1574 40.3256 31.1259 41.3038 31.7409C41.878 28.723 42.2109 25.5037 42.2109 22.1909C42.2109 18.1807 41.7818 14.3385 40.9488 10.7784C38.2952 8.27404 35.2157 5.96777 31.7591 3.96266C28.9036 2.30627 25.9707 1.0081 23.0821 0ZM21.2678 5.46847C19.3163 5.47006 17.7181 7.03293 17.7181 8.99524C17.7181 10.2934 18.417 11.4267 19.4535 12.0465C17.4673 12.1987 15.6956 12.5965 14.3657 13.156C14.7964 13.7267 15.2523 14.3401 15.7461 14.9392C17.0429 14.8299 18.4139 14.7284 19.8479 14.7015C19.9994 16.0266 20.0846 19.0921 20.0846 20.7644C20.0846 26.9651 19.2484 34.5592 17.1265 36.615C15.6104 36.7291 13.7961 36.485 11.9203 35.981C9.89307 35.4341 8.19868 34.6305 6.91133 33.6826C5.3763 33.8919 4.02426 34.2881 3.00669 34.8318C5.3195 36.8417 7.92102 38.7612 10.7765 40.4192C14.2316 42.4227 17.7828 43.9586 21.2678 45.0159C24.7544 43.9586 28.2631 42.4243 31.7196 40.4192C34.5752 38.7628 37.1767 36.8401 39.4895 34.8318C38.4719 34.2881 37.1199 33.8919 35.5849 33.6826C34.2975 34.6321 32.6015 35.4357 30.5759 35.981C28.7001 36.4866 26.8874 36.7307 25.3697 36.615C23.2493 34.5608 22.4116 26.9651 22.4116 20.7644C22.4116 19.0921 22.4952 16.0282 22.6482 14.7015C24.0807 14.73 25.4533 14.8315 26.7501 14.9392C27.2439 14.3417 27.6983 13.7251 28.1305 13.156C26.799 12.5965 25.0273 12.1987 23.0427 12.0465C24.0776 11.4267 24.7781 10.295 24.7781 8.99524C24.7781 7.03293 23.2194 5.47006 21.2678 5.46847ZM21.2678 7.37055C22.1765 7.37055 22.8849 8.08859 22.8849 8.99524C22.8849 9.9019 22.1702 10.6596 21.2678 10.6596C20.3654 10.6596 19.6113 9.90032 19.6113 8.99524C19.6113 8.087 20.3591 7.37055 21.2678 7.37055ZM9.71164 27.1442C10.3431 27.0656 10.9903 27.3879 11.3287 27.9764C11.7799 28.761 11.5196 29.7437 10.7371 30.1955C9.95617 30.6488 8.98277 30.392 8.52841 29.6011C8.07405 28.8086 8.33752 27.7957 9.12002 27.3424C9.31526 27.229 9.50115 27.1705 9.71164 27.1442ZM32.824 27.1442C33.0347 27.1707 33.2594 27.2286 33.455 27.3424C34.236 27.7957 34.501 28.8101 34.0467 29.6011C33.5907 30.392 32.5795 30.6472 31.7985 30.1955C31.016 29.7406 30.7557 28.761 31.2069 27.9764C31.5453 27.3868 32.1919 27.065 32.824 27.1442Z" fill="#6B7076"/>
<path d="M64.4162 10.7393C58.1688 10.7393 52.7417 15.3249 52.7417 22.3102C52.7417 24.9414 53.4469 27.2477 54.6743 29.0864H54.7137V29.126H54.7532C56.8846 32.2771 60.4611 34.119 64.4162 34.119C68.4202 34.119 72.0693 32.2835 74.1975 29.126C74.2054 29.1149 74.2307 29.0959 74.237 29.0864C75.4533 27.2287 76.1696 25.0159 76.1696 22.4687C76.1696 15.3819 70.7283 10.7393 64.4162 10.7393ZM95.3773 11.2148V33.7623H103.897C110.13 33.7623 114.979 29.3178 114.979 21.8347C114.979 16.4043 112.297 11.4795 105.79 11.2148H95.3773ZM128.587 11.2148L125.983 33.7227H129.178L130.795 15.1378C131.298 17.2967 137.185 33.5246 137.185 33.5246H139.827C139.827 33.5246 146.095 17.8705 146.769 15.1378L148.228 33.7227H152.33L150.121 11.2148H146.217C146.217 11.2148 139.789 26.9497 139.117 29.0071C138.513 26.9148 132.57 11.2148 132.57 11.2148H128.587ZM155.998 11.2148V25.1634C155.998 28.9421 156.531 30.7951 158.009 32.1773C159.488 33.5959 162.386 34.3567 164.872 34.3567C167.458 34.3567 170.528 33.4295 171.971 31.9791C173.516 30.3592 174.022 28.7012 174.022 25.1237L174.062 11.2148H170.473L170.591 24.8067C170.591 27.9119 170.16 29.3701 169.053 30.3148C168.28 31.0233 166.543 31.3847 165.267 31.3847C163.99 31.3847 162.231 31.0297 161.559 30.3544C160.45 29.3083 160.1 27.9784 160.1 24.8067L160.218 11.2148H155.998ZM176.783 11.2148C176.782 11.3115 176.78 13.5543 176.783 13.5527C176.834 13.5527 182.897 13.5527 182.897 13.5527V33.7623H186.998V13.5527H193.151V11.2148H176.783ZM196.188 11.2148V25.1634C196.188 28.9421 196.72 30.7951 198.2 32.1773C199.675 33.5959 202.538 34.3567 205.023 34.3567C207.61 34.3567 210.718 33.4295 212.162 31.9791C213.708 30.3592 214.213 28.7012 214.213 25.1237L214.252 11.2148H210.663L210.742 24.8067C210.742 27.9119 210.349 29.3701 209.243 30.3148C208.47 31.0233 206.732 31.3847 205.457 31.3847C204.18 31.3847 202.382 31.0297 201.71 30.3544C200.601 29.3083 200.251 27.9784 200.251 24.8067L200.408 11.2148H196.188ZM224.27 11.2148L215.751 33.7623H219.103C219.103 33.7623 220.222 30.2942 221.43 26.8277H229.003L231.291 33.7623H235.747L234.604 30.6318L228.569 14.6227L227.228 11.2148H224.27ZM80.0348 11.2544V33.7623H92.6559V31.3847H84.3338V11.2544H80.0348ZM239.06 11.2544V33.7623H251.682V31.3847H243.359V11.2544H239.06ZM64.4556 12.9583C68.5496 12.9583 71.5944 16.6753 71.5944 22.4291C71.5944 25.1301 70.9066 27.4015 69.7407 29.0864C68.4534 30.9076 66.6154 31.9395 64.4556 31.9395C62.3195 31.9395 60.4563 30.9076 59.1706 29.0864C57.9921 27.3729 57.3168 25.0936 57.3168 22.3499C57.3168 16.6785 60.4043 12.9583 64.4556 12.9583ZM99.7158 13.5527H103.108C107.394 13.5527 110.444 15.5705 110.444 21.7951C110.444 29.5429 106.91 31.3847 102.713 31.3847H99.7158V13.5527ZM225.256 15.1378L228.135 24.569H222.18L225.256 15.1378Z" fill="#6B7076"/>
</g>
<defs>
<clipPath id="clip0_184_3">
<rect width="252" height="45" fill="white"/>
</clipPath>
</defs>
</svg>
